# xmcd
#
# Track frame offsets: 
#        150
#        15380
#        30402
#        44272
#        57565
#        73580
#        86117
#        98135
#        109412
#        125512
#
# Disc length: 1863 seconds
#
# Revision: 1
# Processed by: cddbd v1.4PL0 Copyright (c) Steve Scherf et al.
# Submitted via: ExactAudioCopy v0.90b4
#
DISCID=8307450a
DTITLE=Vern Gosdin - If You're Gonna Do Me Wrong (Do It Right)
DYEAR=1900
DGENRE=Country
TTITLE0=If You're Gonna Do Me Wrong (Do It Right)
TTITLE1=Tennessee Courage
TTITLE2=Today My World Slipped Away
TTITLE3=I Feel Love Closin' In
TTITLE4=I Wonder Where We'd Be Tonight
TTITLE5=Way Down Deep
TTITLE6=I Couldn't Love You More
TTITLE7=My Heart Is In Good Hands
TTITLE8=Favorite Fool Of All
TTITLE9=I'll Try
EXTD=
EXTT0=
EXTT1=
EXTT2=
EXTT3=
EXTT4=
EXTT5=
EXTT6=
EXTT7=
EXTT8=
EXTT9=
PLAYORDER=
